<svg width="24" height="25" viewBox="0 0 24 25" fill="none" xmlns="http://www.w3.org/2000/svg">
<path d="M12 15.6719C8.82996 15.6719 6.01083 17.2025 4.21603 19.5778C3.82974 20.0891 3.63659 20.3447 3.64291 20.6902C3.64779 20.9571 3.81539 21.2938 4.0254 21.4586C4.29722 21.6719 4.6739 21.6719 5.42727 21.6719H18.5728C19.3262 21.6719 19.7028 21.6719 19.9747 21.4586C20.1847 21.2938 20.3523 20.9571 20.3572 20.6902C20.3635 20.3447 20.1703 20.0891 19.784 19.5778C17.9892 17.2025 15.1701 15.6719 12 15.6719Z" stroke="#303030" stroke-width="1.5" stroke-linecap="round" stroke-linejoin="round"/>
<path d="M12 12.6719C14.4853 12.6719 16.5 10.6572 16.5 8.17188C16.5 5.68659 14.4853 3.67188 12 3.67188C9.51475 3.67188 7.50003 5.68659 7.50003 8.17188C7.50003 10.6572 9.51475 12.6719 12 12.6719Z" stroke="#303030" stroke-width="1.5" stroke-linecap="round" stroke-linejoin="round"/>
</svg>
