<svg width="104" height="33" viewBox="0 0 104 33" fill="none" xmlns="http://www.w3.org/2000/svg">
<path d="M0.196777 32.6602V7.93288L34.2643 0.660156L103.849 8.66016V32.6602H0.196777Z" fill="black"/>
<path d="M29.0062 24.6269L27.9662 27.3629H25.8222L30.4142 15.3149H32.8302L37.4382 27.3469H35.2622L34.2222 24.6269H29.0062ZM33.4862 22.7229L31.6302 17.7789L29.7422 22.7229H33.4862ZM43.9253 18.2589V20.4509C43.6373 20.4509 43.3546 20.4776 43.0773 20.5309C42.8106 20.5736 42.528 20.7016 42.2293 20.9149C41.8666 21.1496 41.5946 21.4536 41.4133 21.8269C41.232 22.1896 41.1413 22.6696 41.1413 23.2669V27.3629H39.0453V18.6909H41.1413V19.6509L41.2213 19.6829C41.3813 19.4696 41.5626 19.2669 41.7653 19.0749C41.9786 18.8829 42.2506 18.7176 42.5813 18.5789C42.8373 18.4723 43.12 18.3923 43.4293 18.3389C43.7386 18.2856 43.904 18.2589 43.9253 18.2589ZM50.2734 27.3789H49.1374C48.8068 27.3789 48.5081 27.3256 48.2414 27.2189C47.9854 27.1229 47.7508 26.9789 47.5374 26.7869C47.3668 26.6056 47.2228 26.3656 47.1054 26.0669C46.9988 25.7683 46.9454 25.4323 46.9454 25.0589V20.4349H45.9214V18.6269H46.9454V15.9389H49.0734V18.6269H50.2734V20.4349H49.0734V24.6269C49.0734 24.8296 49.0841 24.9896 49.1054 25.1069C49.1374 25.2136 49.2174 25.3149 49.3454 25.4109C49.4628 25.5069 49.5908 25.5656 49.7294 25.5869C49.8788 25.5976 50.0601 25.6029 50.2734 25.6029V27.3789ZM63.1987 15.3309C64.852 15.3309 66.1694 15.9229 67.1507 17.1069C68.132 18.2803 68.6227 19.6936 68.6227 21.3469C68.6227 22.9896 68.132 24.4136 67.1507 25.6189C66.1694 26.8136 64.852 27.4056 63.1987 27.3949L58.7027 27.3789V15.3309H63.1987ZM62.8787 25.4269C63.988 25.4269 64.8467 25.0483 65.4547 24.2909C66.0734 23.5336 66.3827 22.5523 66.3827 21.3469C66.3827 20.1416 66.0734 19.1656 65.4547 18.4189C64.8467 17.6616 63.988 17.2829 62.8787 17.2829H60.7827V25.4269H62.8787ZM74.9777 18.2589C76.2897 18.2589 77.3297 18.7229 78.0977 19.6509C78.8764 20.5789 79.2657 21.6829 79.2657 22.9629C79.2657 24.2429 78.8764 25.3416 78.0977 26.2589C77.319 27.1869 76.2737 27.6509 74.9617 27.6509C73.639 27.6509 72.5884 27.1869 71.8097 26.2589C71.0417 25.3416 70.6577 24.2429 70.6577 22.9629C70.6577 21.6829 71.047 20.5789 71.8257 19.6509C72.6044 18.7229 73.655 18.2589 74.9777 18.2589ZM74.9617 25.8109C75.655 25.8109 76.2044 25.5336 76.6097 24.9789C77.015 24.4136 77.2177 23.7416 77.2177 22.9629C77.2177 22.1736 77.015 21.5069 76.6097 20.9629C76.2044 20.4083 75.655 20.1309 74.9617 20.1309C74.279 20.1309 73.735 20.4083 73.3297 20.9629C72.9244 21.5069 72.7217 22.1736 72.7217 22.9629C72.7217 23.7416 72.9244 24.4136 73.3297 24.9789C73.735 25.5336 74.279 25.8109 74.9617 25.8109ZM89.4466 21.4109L87.1906 21.3949C87.1159 21.1816 86.9346 20.9309 86.6466 20.6429C86.3692 20.3549 85.9426 20.2109 85.3666 20.2109C84.6519 20.2109 84.1026 20.4829 83.7186 21.0269C83.3452 21.5603 83.1586 22.2056 83.1586 22.9629C83.1586 23.7096 83.3506 24.3603 83.7346 24.9149C84.1186 25.4589 84.6626 25.7309 85.3666 25.7309C85.8999 25.7309 86.3106 25.5923 86.5986 25.3149C86.8972 25.0269 87.0839 24.7549 87.1586 24.4989L89.4146 24.5149C89.2332 25.2509 88.7959 25.9549 88.1026 26.6269C87.4092 27.3096 86.4866 27.6509 85.3346 27.6509C84.0012 27.6509 82.9452 27.1869 82.1666 26.2589C81.3986 25.3416 81.0146 24.2429 81.0146 22.9629C81.0146 21.6829 81.3986 20.5843 82.1666 19.6669C82.9452 18.7389 84.0012 18.2749 85.3346 18.2749C86.4972 18.2749 87.4359 18.6323 88.1506 19.3469C88.8759 20.0616 89.3079 20.7496 89.4466 21.4109ZM99.7023 27.3629H97.2863L94.3103 23.3789L93.5903 24.1469V27.3629H91.4943V15.3309H93.5903V21.5069L96.5023 18.6269H99.1423L95.7823 21.9389L99.7023 27.3629Z" fill="white"/>
</svg>
