<svg width="105" height="33" viewBox="0 0 105 33" fill="none" xmlns="http://www.w3.org/2000/svg">
<path d="M0.371643 32.6719V7.9446L34.4391 0.671875L104.024 8.67188V32.6719H0.371643Z" fill="black"/>
<path d="M8.10731 23.9534L6.75078 27.5221H3.95426L9.94383 11.8074H13.0951L19.1056 27.5013H16.2673L14.9108 23.9534H8.10731ZM13.9508 21.47L11.5299 15.0213L9.06731 21.47H13.9508ZM27.567 15.6474V18.5065C27.1914 18.5065 26.8227 18.5413 26.4609 18.6108C26.1131 18.6665 25.7444 18.8334 25.3549 19.1117C24.8818 19.4178 24.527 19.8143 24.2905 20.3013C24.054 20.7743 23.9357 21.4004 23.9357 22.1795V27.5221H21.2018V16.2108H23.9357V17.463L24.0401 17.5047C24.2488 17.2265 24.4853 16.9621 24.7496 16.7117C25.0279 16.4613 25.3827 16.2456 25.814 16.0647C26.1479 15.9256 26.5166 15.8213 26.9201 15.7517C27.3236 15.6821 27.5392 15.6474 27.567 15.6474ZM35.8472 27.543H34.3655C33.9342 27.543 33.5446 27.4734 33.1968 27.3343C32.8628 27.2091 32.5568 27.0213 32.2785 26.7708C32.0559 26.5343 31.8681 26.2213 31.715 25.8317C31.5759 25.4421 31.5063 25.0039 31.5063 24.5169V18.4856H30.1707V16.1274H31.5063V12.6213H34.282V16.1274H35.8472V18.4856H34.282V23.9534C34.282 24.2178 34.2959 24.4265 34.3237 24.5795C34.3655 24.7187 34.4698 24.8508 34.6368 24.9761C34.7898 25.1013 34.9568 25.1778 35.1376 25.2056C35.3324 25.2195 35.5689 25.2265 35.8472 25.2265V27.543ZM52.7062 11.8282C54.8627 11.8282 56.581 12.6004 57.861 14.1447C59.141 15.6752 59.781 17.5187 59.781 19.6752C59.781 21.8178 59.141 23.6752 57.861 25.2474C56.581 26.8056 54.8627 27.5778 52.7062 27.5639L46.8419 27.543V11.8282H52.7062ZM52.2888 24.9969C53.7358 24.9969 54.8558 24.503 55.6488 23.5152C56.4558 22.5274 56.8593 21.2474 56.8593 19.6752C56.8593 18.103 56.4558 16.83 55.6488 15.8561C54.8558 14.8682 53.7358 14.3743 52.2888 14.3743H49.5549V24.9969H52.2888ZM68.0701 15.6474C69.7814 15.6474 71.138 16.2526 72.1397 17.463C73.1553 18.6734 73.6632 20.1134 73.6632 21.783C73.6632 23.4526 73.1553 24.8856 72.1397 26.0821C71.124 27.2926 69.7606 27.8978 68.0493 27.8978C66.324 27.8978 64.9536 27.2926 63.938 26.0821C62.9362 24.8856 62.4353 23.4526 62.4353 21.783C62.4353 20.1134 62.9432 18.6734 63.9588 17.463C64.9745 16.2526 66.3449 15.6474 68.0701 15.6474ZM68.0493 25.4978C68.9536 25.4978 69.6701 25.1361 70.1988 24.4126C70.7275 23.6752 70.9919 22.7987 70.9919 21.783C70.9919 20.7534 70.7275 19.8839 70.1988 19.1743C69.6701 18.4508 68.9536 18.0891 68.0493 18.0891C67.1588 18.0891 66.4493 18.4508 65.9206 19.1743C65.3919 19.8839 65.1275 20.7534 65.1275 21.783C65.1275 22.7987 65.3919 23.6752 65.9206 24.4126C66.4493 25.1361 67.1588 25.4978 68.0493 25.4978ZM86.9426 19.7587L84 19.7378C83.9026 19.4595 83.666 19.1326 83.2904 18.7569C82.9287 18.3813 82.3721 18.1934 81.6208 18.1934C80.6887 18.1934 79.9721 18.5482 79.4713 19.2578C78.9843 19.9534 78.7408 20.7952 78.7408 21.783C78.7408 22.7569 78.9913 23.6056 79.4921 24.3291C79.993 25.0387 80.7026 25.3934 81.6208 25.3934C82.3165 25.3934 82.8521 25.2126 83.2278 24.8508C83.6174 24.4752 83.8608 24.1204 83.9582 23.7865L86.9008 23.8074C86.6643 24.7674 86.0939 25.6856 85.1895 26.5621C84.2852 27.4526 83.0817 27.8978 81.5791 27.8978C79.84 27.8978 78.4626 27.2926 77.4469 26.0821C76.4452 24.8856 75.9443 23.4526 75.9443 21.783C75.9443 20.1134 76.4452 18.6804 77.4469 17.4839C78.4626 16.2734 79.84 15.6682 81.5791 15.6682C83.0956 15.6682 84.32 16.1343 85.2521 17.0665C86.1982 17.9987 86.7617 18.8961 86.9426 19.7587ZM100.32 27.5221H97.1683L93.2866 22.3256L92.3475 23.3274V27.5221H89.6136V11.8282H92.3475V19.8839L96.1457 16.1274H99.5892L95.2066 20.4474L100.32 27.5221Z" fill="white"/>
</svg>
