<svg width="88" height="98" viewBox="0 0 88 98" fill="none" xmlns="http://www.w3.org/2000/svg">
<path d="M0.645391 98V-6.67572e-06H43.0654C51.8387 -6.67572e-06 59.3987 1.44666 65.7454 4.34C72.0921 7.13999 76.9921 11.2 80.4454 16.52C83.8987 21.84 85.6254 28.1867 85.6254 35.56C85.6254 42.84 83.8987 49.14 80.4454 54.46C76.9921 59.6867 72.0921 63.7 65.7454 66.5C59.3987 69.3 51.8387 70.7 43.0654 70.7H13.2454L23.3254 60.76V98H0.645391ZM62.9454 98L38.4454 62.44H62.6654L87.4454 98H62.9454ZM23.3254 63.28L13.2454 52.64H41.8054C48.8054 52.64 54.0321 51.1467 57.4854 48.16C60.9387 45.08 62.6654 40.88 62.6654 35.56C62.6654 30.1467 60.9387 25.9467 57.4854 22.96C54.0321 19.9733 48.8054 18.48 41.8054 18.48H13.2454L23.3254 7.69999V63.28Z" fill="#3D3D3D"/>
</svg>
