<svg width="1928" height="1039" viewBox="0 0 1928 1039" fill="none" xmlns="http://www.w3.org/2000/svg">
<g clip-path="url(#clip0_512_16)" filter="url(#filter0_d_512_16)">
<rect width="1920" height="1031" transform="translate(4)" fill="white"/>
<rect x="4" y="-49" width="1920" height="1080" fill="url(#paint0_angular_512_16)" fill-opacity="0.2"/>
<path fill-rule="evenodd" clip-rule="evenodd" d="M963.752 -134.701V-134.701H1980.5V490.753V491.248V1116.7H964.248H963.752H-52.4968V490.753H-52.4967V-134.701H963.752ZM1979.82 334.93V412.412H1902.34V334.93H1979.82ZM1901.66 334.93V412.412H1824.18V334.93H1901.66ZM1902.34 413.089H1979.82V490.571H1902.34V413.089ZM1901.66 413.089V490.571H1824.18V413.089H1901.66ZM1823.5 490.571V413.089H1746.02V490.571H1823.5ZM1823.5 412.412V334.93H1746.02V412.412H1823.5ZM1979.82 256.771V334.253H1902.34V256.771H1979.82ZM1901.66 256.771V334.253H1824.18V256.771H1901.66ZM1823.5 334.253H1746.02V256.771H1823.5V334.253ZM1979.82 100.453V177.935H1902.34V100.453H1979.82ZM1901.66 100.453V177.935H1824.18V100.453H1901.66ZM1902.34 178.612H1979.82V256.094H1902.34V178.612ZM1901.66 178.612V256.094H1824.18V178.612H1901.66ZM1823.5 256.094V178.612H1746.02V256.094H1823.5ZM1823.5 177.935V100.453H1746.02V177.935H1823.5ZM1979.82 22.2937V99.776H1902.34V22.2937H1979.82ZM1901.66 22.2937V99.776H1824.18V22.2937H1901.66ZM1823.5 99.776H1746.02V22.2937H1823.5V99.776ZM1824.18 -134.024H1901.66V-56.5421H1824.18V-134.024ZM1824.18 -55.8654H1901.66V21.617H1824.18V-55.8654ZM1902.34 -56.5421V-134.024H1979.82V-56.5421H1902.34ZM1902.34 -55.8654H1979.82V21.617H1902.34V-55.8654ZM1823.5 -56.5421V-134.024H1746.02V-56.5421H1823.5ZM1823.5 21.617V-55.8654H1746.02V21.617H1823.5ZM1745.34 413.089V490.571H1667.86V413.089H1745.34ZM1667.18 413.089V490.571H1589.7V413.089H1667.18ZM1745.34 412.412H1667.86V334.93H1745.34V412.412ZM1667.18 334.93V412.412H1589.7V334.93H1667.18ZM1667.86 334.253H1745.34V256.771H1667.86V334.253ZM1667.18 334.253V256.771H1589.7V334.253H1667.18ZM1745.34 100.453V177.935H1667.86V100.453H1745.34ZM1745.34 178.612V256.094H1667.86V178.612H1745.34ZM1745.34 99.776H1667.86V22.2937H1745.34V99.776ZM1667.86 -134.024H1745.34V-56.5421H1667.86V-134.024ZM1667.86 -55.8654H1745.34V21.617H1667.86V-55.8654ZM1667.18 100.453V177.935H1589.7V100.453H1667.18ZM1667.18 178.612V256.094H1589.7V178.612H1667.18ZM1667.18 99.776V22.2937H1589.7V99.776H1667.18ZM1589.7 -134.024H1667.18V-56.5421H1589.7V-134.024ZM1589.7 -55.8654H1667.18V21.617H1589.7V-55.8654ZM1589.02 413.089V490.571H1511.54V413.089H1589.02ZM1510.87 413.089V490.571H1433.38V413.089H1510.87ZM1589.02 412.412H1511.54V334.93H1589.02V412.412ZM1510.87 334.93V412.412H1433.38V334.93H1510.87ZM1511.54 334.253H1589.02V256.771H1511.54V334.253ZM1510.87 334.253V256.771H1433.38V334.253H1510.87ZM1433.38 -134.024H1510.87V-56.5421H1433.38V-134.024ZM1433.38 -55.8654H1510.87V21.617H1433.38V-55.8654ZM1511.54 -56.5421V-134.024H1589.02V-56.5421H1511.54ZM1511.54 -55.8654H1589.02V21.617H1511.54V-55.8654ZM1589.02 22.2937H1511.54V99.776H1589.02V22.2937ZM1510.87 178.612V256.094H1433.38V178.612H1510.87ZM1510.87 100.453V177.935H1433.38V100.453H1510.87ZM1589.02 177.935H1511.54V100.453H1589.02V177.935ZM1510.87 99.776V22.2937H1433.38V99.776H1510.87ZM1354.55 490.571V413.089H1277.07V490.571H1354.55ZM1355.22 412.412H1432.71V334.93H1355.22V412.412ZM1354.55 412.412V334.93H1277.07V412.412H1354.55ZM1355.22 490.571H1432.71V413.089H1355.22V490.571ZM1432.71 334.253H1355.22V256.771H1432.71V334.253ZM1354.55 256.771V334.253H1277.07V256.771H1354.55ZM1432.71 -55.8654H1355.22V21.617H1432.71V-55.8654ZM1354.55 -56.5421V-134.024H1277.07V-56.5421H1354.55ZM1432.71 -134.024H1355.22V-56.5421H1432.71V-134.024ZM1355.22 22.2937H1432.71V99.776H1355.22V22.2937ZM1354.55 99.776V22.2937H1277.07V99.776H1354.55ZM1354.55 -55.8654V21.617H1277.07V-55.8654H1354.55ZM1198.23 490.571V413.089H1120.75V490.571H1198.23ZM1198.91 412.412H1276.39V334.93H1198.91V412.412ZM1198.23 412.412V334.93H1120.75V412.412H1198.23ZM1198.91 490.571H1276.39V413.089H1198.91V490.571ZM1276.39 334.253H1198.91V256.771H1276.39V334.253ZM1198.23 256.771V334.253H1120.75V256.771H1198.23ZM1354.55 178.612V256.094H1277.07V178.612H1354.55ZM1432.71 177.935H1355.22V100.453H1432.71V177.935ZM1354.55 100.453V177.935H1277.07V100.453H1354.55ZM1276.39 -55.8654H1198.91V21.617H1276.39V-55.8654ZM1198.23 -56.5421V-134.024H1120.75V-56.5421H1198.23ZM1276.39 -134.024H1198.91V-56.5421H1276.39V-134.024ZM1198.91 22.2937H1276.39V99.776H1198.91V22.2937ZM1198.23 178.612V256.094H1120.75V178.612H1198.23ZM1198.23 100.453V177.935H1120.75V100.453H1198.23ZM1276.39 177.935H1198.91V100.453H1276.39V177.935ZM1198.23 22.2937V99.776H1120.75V22.2937H1198.23ZM1198.23 -55.8654V21.617H1120.75V-55.8654H1198.23ZM964.429 412.412H1041.91V334.93H964.429V412.412ZM1042.59 413.089V490.571H1120.07V413.089H1042.59ZM964.429 413.089V490.571H1041.91V413.089H964.429ZM1120.07 412.412H1042.59V334.93H1120.07V412.412ZM964.429 334.253H1041.91V256.771H964.429V334.253ZM1120.07 334.253H1042.59V256.771H1120.07V334.253ZM964.429 256.094H1041.91V178.612H964.429V256.094ZM1120.07 256.094H1042.59V178.612H1120.07V256.094ZM964.429 177.935H1041.91V100.453H964.429V177.935ZM1120.07 177.935H1042.59V100.453H1120.07V177.935ZM1120.07 99.776H1042.59V22.2937H1120.07V99.776ZM1041.91 99.776H964.429V22.2937H1041.91V99.776ZM1120.07 -56.5421V-134.024H1042.59V-56.5421H1120.07ZM964.429 -55.8654H1041.91V21.617H964.429V-55.8654ZM1041.91 -56.5421H964.429V-134.024H1041.91V-56.5421ZM1120.07 -55.8654H1042.59V21.617H1120.07V-55.8654ZM1198.91 178.612V256.094H1276.39V178.612H1198.91ZM1355.22 178.612V256.094H1432.71V178.612H1355.22ZM1511.54 178.612V256.094H1589.02V178.612H1511.54ZM1979.82 960.384V1037.87H1902.34V960.384H1979.82ZM1901.66 960.384V1037.87H1824.18V960.384H1901.66ZM1902.34 1038.54H1979.82V1116.03H1902.34V1038.54ZM1901.66 1038.54V1116.03H1824.18V1038.54H1901.66ZM1823.5 1116.03V1038.54H1746.02V1116.03H1823.5ZM1823.5 1037.87V960.384H1746.02V1037.87H1823.5ZM1979.82 882.225V959.708H1902.34V882.225H1979.82ZM1901.66 882.225V959.708H1824.18V882.225H1901.66ZM1823.5 959.708H1746.02V882.225H1823.5V959.708ZM1979.82 725.907V803.389H1902.34V725.907H1979.82ZM1901.66 725.907V803.389H1824.18V725.907H1901.66ZM1902.34 804.066H1979.82V881.548H1902.34V804.066ZM1901.66 804.066V881.548H1824.18V804.066H1901.66ZM1823.5 881.548V804.066H1746.02V881.548H1823.5ZM1823.5 803.389V725.907H1746.02V803.389H1823.5ZM1979.82 647.748V725.23H1902.34V647.748H1979.82ZM1901.66 647.748V725.23H1824.18V647.748H1901.66ZM1823.5 725.23H1746.02V647.748H1823.5V725.23ZM1824.18 491.43H1901.66V568.912H1824.18V491.43ZM1824.18 569.589H1901.66V647.071H1824.18V569.589ZM1902.34 568.912V491.43H1979.82V568.912H1902.34ZM1902.34 569.589H1979.82V647.071H1902.34V569.589ZM1823.5 568.912V491.43H1746.02V568.912H1823.5ZM1823.5 647.071V569.589H1746.02V647.071H1823.5ZM1745.34 1038.54V1116.03H1667.86V1038.54H1745.34ZM1667.18 1038.54V1116.03H1589.7V1038.54H1667.18ZM1745.34 1037.87H1667.86V960.384H1745.34V1037.87ZM1667.18 960.384V1037.87H1589.7V960.384H1667.18ZM1667.86 959.708H1745.34V882.225H1667.86V959.708ZM1667.18 959.708V882.225H1589.7V959.708H1667.18ZM1745.34 725.907V803.389H1667.86V725.907H1745.34ZM1745.34 804.066V881.548H1667.86V804.066H1745.34ZM1745.34 725.23H1667.86V647.748H1745.34V725.23ZM1667.86 491.43H1745.34V568.912H1667.86V491.43ZM1667.86 569.589H1745.34V647.071H1667.86V569.589ZM1667.18 725.907V803.389H1589.7V725.907H1667.18ZM1667.18 804.066V881.548H1589.7V804.066H1667.18ZM1667.18 725.23V647.748H1589.7V725.23H1667.18ZM1589.7 491.43H1667.18V568.912H1589.7V491.43ZM1589.7 569.589H1667.18V647.071H1589.7V569.589ZM1589.02 1038.54V1116.03H1511.54V1038.54H1589.02ZM1510.87 1038.54V1116.03H1433.38V1038.54H1510.87ZM1589.02 1037.87H1511.54V960.384H1589.02V1037.87ZM1510.87 960.384V1037.87H1433.38V960.384H1510.87ZM1511.54 959.708H1589.02V882.225H1511.54V959.708ZM1510.87 959.708V882.225H1433.38V959.708H1510.87ZM1433.38 491.43H1510.87V568.912H1433.38V491.43ZM1433.38 569.589H1510.87V647.071H1433.38V569.589ZM1511.54 568.912V491.43H1589.02V568.912H1511.54ZM1511.54 569.589H1589.02V647.071H1511.54V569.589ZM1589.02 647.748H1511.54V725.23H1589.02V647.748ZM1510.87 804.066V881.548H1433.38V804.066H1510.87ZM1510.87 725.907V803.389H1433.38V725.907H1510.87ZM1589.02 803.389H1511.54V725.907H1589.02V803.389ZM1510.87 725.23V647.748H1433.38V725.23H1510.87ZM1354.55 1116.03V1038.54H1277.07V1116.03H1354.55ZM1355.22 1037.87H1432.71V960.384H1355.22V1037.87ZM1354.55 1037.87V960.384H1277.07V1037.87H1354.55ZM1355.22 1116.03H1432.71V1038.54H1355.22V1116.03ZM1432.71 959.708H1355.22V882.225H1432.71V959.708ZM1354.55 882.225V959.708H1277.07V882.225H1354.55ZM1432.71 569.589H1355.22V647.071H1432.71V569.589ZM1354.55 568.912V491.43H1277.07V568.912H1354.55ZM1432.71 491.43H1355.22V568.912H1432.71V491.43ZM1355.22 647.748H1432.71V725.23H1355.22V647.748ZM1354.55 725.23V647.748H1277.07V725.23H1354.55ZM1354.55 569.589V647.071H1277.07V569.589H1354.55ZM1198.23 1116.03V1038.54H1120.75V1116.03H1198.23ZM1198.91 1037.87H1276.39V960.384H1198.91V1037.87ZM1198.23 1037.87V960.384H1120.75V1037.87H1198.23ZM1198.91 1116.03H1276.39V1038.54H1198.91V1116.03ZM1276.39 959.708H1198.91V882.225H1276.39V959.708ZM1198.23 882.225V959.708H1120.75V882.225H1198.23ZM1354.55 804.066V881.548H1277.07V804.066H1354.55ZM1432.71 803.389H1355.22V725.907H1432.71V803.389ZM1354.55 725.907V803.389H1277.07V725.907H1354.55ZM1276.39 569.589H1198.91V647.071H1276.39V569.589ZM1198.23 568.912V491.43H1120.75V568.912H1198.23ZM1276.39 491.43H1198.91V568.912H1276.39V491.43ZM1198.91 647.748H1276.39V725.23H1198.91V647.748ZM1198.23 804.066V881.548H1120.75V804.066H1198.23ZM1198.23 725.907V803.389H1120.75V725.907H1198.23ZM1276.39 803.389H1198.91V725.907H1276.39V803.389ZM1198.23 647.748V725.23H1120.75V647.748H1198.23ZM1198.23 569.589V647.071H1120.75V569.589H1198.23ZM964.429 1037.87H1041.91V960.384H964.429V1037.87ZM1042.59 1038.54V1116.03H1120.07V1038.54H1042.59ZM964.429 1038.54V1116.03H1041.91V1038.54H964.429ZM1120.07 1037.87H1042.59V960.384H1120.07V1037.87ZM964.429 959.708H1041.91V882.225H964.429V959.708ZM1120.07 959.708H1042.59V882.225H1120.07V959.708ZM964.429 881.548H1041.91V804.066H964.429V881.548ZM1120.07 881.548H1042.59V804.066H1120.07V881.548ZM964.429 803.389H1041.91V725.907H964.429V803.389ZM1120.07 803.389H1042.59V725.907H1120.07V803.389ZM1120.07 725.23H1042.59V647.748H1120.07V725.23ZM1041.91 725.23H964.429V647.748H1041.91V725.23ZM1120.07 568.912V491.43H1042.59V568.912H1120.07ZM964.429 569.589H1041.91V647.071H964.429V569.589ZM1041.91 568.912H964.429V491.43H1041.91V568.912ZM1120.07 569.589H1042.59V647.071H1120.07V569.589ZM1198.91 804.066V881.548H1276.39V804.066H1198.91ZM1355.22 804.066V881.548H1432.71V804.066H1355.22ZM1511.54 804.066V881.548H1589.02V804.066H1511.54ZM963.571 1037.87V960.384H886.089V1037.87H963.571ZM885.412 1037.87V960.384H807.93V1037.87H885.412ZM963.571 1038.54H886.089V1116.03H963.571V1038.54ZM885.412 1116.03V1038.54H807.93V1116.03H885.412ZM807.253 1038.54V1116.03H729.771V1038.54H807.253ZM807.253 960.384V1037.87H729.771V960.384H807.253ZM963.571 959.708V882.225H886.089V959.708H963.571ZM885.412 959.708V882.225H807.93V959.708H885.412ZM729.771 959.708H807.253V882.225H729.771V959.708ZM963.571 803.389V725.907H886.089V803.389H963.571ZM885.412 803.389V725.907H807.93V803.389H885.412ZM963.571 804.066H886.089V881.548H963.571V804.066ZM885.412 881.548V804.066H807.93V881.548H885.412ZM807.253 804.066V881.548H729.771V804.066H807.253ZM807.253 725.907V803.389H729.771V725.907H807.253ZM963.571 725.23V647.748H886.089V725.23H963.571ZM885.412 725.23V647.748H807.93V725.23H885.412ZM729.771 725.23H807.253V647.748H729.771V725.23ZM885.412 491.43H807.93V568.912H885.412V491.43ZM885.412 569.589H807.93V647.071H885.412V569.589ZM886.089 491.43V568.912H963.571V491.43H886.089ZM963.571 569.589H886.089V647.071H963.571V569.589ZM807.253 491.43V568.912H729.771V491.43H807.253ZM807.253 569.589V647.071H729.771V569.589H807.253ZM729.094 1116.03V1038.54H651.612V1116.03H729.094ZM650.935 1116.03V1038.54H573.452V1116.03H650.935ZM651.612 1037.87H729.094V960.384H651.612V1037.87ZM650.935 1037.87V960.384H573.452V1037.87H650.935ZM729.094 959.708H651.612V882.225H729.094V959.708ZM650.935 882.225V959.708H573.452V882.225H650.935ZM729.094 803.389V725.907H651.612V803.389H729.094ZM729.094 881.548V804.066H651.612V881.548H729.094ZM651.612 725.23H729.094V647.748H651.612V725.23ZM729.094 491.43H651.612V568.912H729.094V491.43ZM729.094 569.589H651.612V647.071H729.094V569.589ZM650.935 803.389V725.907H573.452V803.389H650.935ZM650.935 881.548V804.066H573.452V881.548H650.935ZM650.935 647.748V725.23H573.452V647.748H650.935ZM650.935 491.43H573.452V568.912H650.935V491.43ZM650.935 569.589H573.452V647.071H650.935V569.589ZM572.776 1116.03V1038.54H495.293V1116.03H572.776ZM494.617 1116.03V1038.54H417.134V1116.03H494.617ZM495.293 1037.87H572.776V960.384H495.293V1037.87ZM494.617 1037.87V960.384H417.134V1037.87H494.617ZM572.776 959.708H495.293V882.225H572.776V959.708ZM494.617 882.225V959.708H417.134V882.225H494.617ZM494.617 491.43H417.134V568.912H494.617V491.43ZM494.617 569.589H417.134V647.071H494.617V569.589ZM495.293 491.43V568.912H572.776V491.43H495.293ZM572.776 569.589H495.293V647.071H572.776V569.589ZM495.293 647.748H572.776V725.23H495.293V647.748ZM494.617 881.548V804.066H417.134V881.548H494.617ZM494.617 803.389V725.907H417.134V803.389H494.617ZM495.293 803.389H572.776V725.907H495.293V803.389ZM494.617 647.748V725.23H417.134V647.748H494.617ZM338.299 1038.54V1116.03H260.816V1038.54H338.299ZM416.458 1037.87H338.975V960.384H416.458V1037.87ZM338.299 960.384V1037.87H260.816V960.384H338.299ZM416.458 1116.03H338.975V1038.54H416.458V1116.03ZM338.975 959.708H416.458V882.225H338.975V959.708ZM338.299 959.708V882.225H260.816V959.708H338.299ZM338.975 569.589H416.458V647.071H338.975V569.589ZM338.299 491.43V568.912H260.816V491.43H338.299ZM338.975 491.43H416.458V568.912H338.975V491.43ZM416.458 647.748H338.975V725.23H416.458V647.748ZM338.299 647.748V725.23H260.816V647.748H338.299ZM338.299 647.071V569.589H260.816V647.071H338.299ZM181.98 1038.54V1116.03H104.498V1038.54H181.98ZM260.139 1037.87H182.657V960.384H260.139V1037.87ZM181.98 960.384V1037.87H104.498V960.384H181.98ZM260.139 1116.03H182.657V1038.54H260.139V1116.03ZM182.657 959.708H260.139V882.225H182.657V959.708ZM181.98 959.708V882.225H104.498V959.708H181.98ZM338.299 881.548V804.066H260.816V881.548H338.299ZM338.975 803.389H416.458V725.907H338.975V803.389ZM338.299 803.389V725.907H260.816V803.389H338.299ZM182.657 569.589H260.139V647.071H182.657V569.589ZM181.98 491.43V568.912H104.498V491.43H181.98ZM182.657 491.43H260.139V568.912H182.657V491.43ZM260.139 647.748H182.657V725.23H260.139V647.748ZM181.98 881.548V804.066H104.498V881.548H181.98ZM181.98 803.389V725.907H104.498V803.389H181.98ZM182.657 803.389H260.139V725.907H182.657V803.389ZM181.98 725.23V647.748H104.498V725.23H181.98ZM181.98 647.071V569.589H104.498V647.071H181.98ZM25.6622 1037.87H-51.8201V960.384H25.6622V1037.87ZM26.3389 1116.03V1038.54H103.821V1116.03H26.3389ZM-51.8201 1116.03V1038.54H25.6622V1116.03H-51.8201ZM26.3389 1037.87H103.821V960.384H26.3389V1037.87ZM25.6622 959.708H-51.8201V882.225H25.6622V959.708ZM26.3389 959.708H103.821V882.225H26.3389V959.708ZM25.6622 881.548H-51.8201V804.066H25.6622V881.548ZM26.3389 881.548H103.821V804.066H26.3389V881.548ZM25.6622 803.389H-51.8201V725.907H25.6622V803.389ZM26.3389 803.389H103.821V725.907H26.3389V803.389ZM26.3389 725.23H103.821V647.748H26.3389V725.23ZM-51.8201 725.23H25.6622V647.748H-51.8201V725.23ZM103.821 491.43V568.912H26.3389V491.43H103.821ZM25.6622 569.589H-51.8201V647.071H25.6622V569.589ZM-51.8201 568.912H25.6622V491.43H-51.8201V568.912ZM26.3389 569.589H103.821V647.071H26.3389V569.589ZM182.657 881.548V804.066H260.139V881.548H182.657ZM338.975 881.548V804.066H416.458V881.548H338.975ZM495.293 881.548V804.066H572.776V881.548H495.293ZM963.571 334.93V412.412H886.089V334.93H963.571ZM885.412 334.93V412.412H807.93V334.93H885.412ZM886.089 413.089H963.571V490.572H886.089V413.089ZM885.412 413.089V490.572H807.93V413.089H885.412ZM807.253 490.572V413.089H729.771V490.572H807.253ZM807.253 412.412V334.93H729.771V412.412H807.253ZM963.571 256.771V334.253H886.089V256.771H963.571ZM885.412 256.771V334.253H807.93V256.771H885.412ZM807.253 334.253H729.771V256.771H807.253V334.253ZM963.571 100.453V177.935H886.089V100.453H963.571ZM885.412 100.453V177.935H807.93V100.453H885.412ZM886.089 178.612H963.571V256.094H886.089V178.612ZM885.412 178.612V256.094H807.93V178.612H885.412ZM807.253 256.094V178.612H729.771V256.094H807.253ZM807.253 177.935V100.453H729.771V177.935H807.253ZM963.571 22.2939V99.7762H886.089V22.2939H963.571ZM885.412 22.2939V99.7762H807.93V22.2939H885.412ZM807.253 99.7762H729.771V22.2939H807.253V99.7762ZM807.93 -134.024H885.412V-56.5419H807.93V-134.024ZM807.93 -55.8652H885.412V21.6172H807.93V-55.8652ZM886.089 -56.5419V-134.024H963.571V-56.5419H886.089ZM886.089 -55.8652H963.571V21.6172H886.089V-55.8652ZM807.253 -56.5419V-134.024H729.771V-56.5419H807.253ZM807.253 21.6172V-55.8652H729.771V21.6172H807.253ZM729.094 413.089V490.572H651.612V413.089H729.094ZM650.935 413.089V490.572H573.453V413.089H650.935ZM729.094 412.412H651.612V334.93H729.094V412.412ZM650.935 334.93V412.412H573.453V334.93H650.935ZM651.612 334.253H729.094V256.771H651.612V334.253ZM650.935 334.253V256.771H573.453V334.253H650.935ZM729.094 100.453V177.935H651.612V100.453H729.094ZM729.094 178.612V256.094H651.612V178.612H729.094ZM729.094 99.7762H651.612V22.2939H729.094V99.7762ZM651.612 -134.024H729.094V-56.5419H651.612V-134.024ZM651.612 -55.8652H729.094V21.6172H651.612V-55.8652ZM650.935 100.453V177.935H573.453V100.453H650.935ZM650.935 178.612V256.094H573.453V178.612H650.935ZM650.935 99.7762V22.2939H573.453V99.7762H650.935ZM573.453 -134.024H650.935V-56.5419H573.453V-134.024ZM573.453 -55.8652H650.935V21.6172H573.453V-55.8652ZM572.776 413.089V490.572H495.293V413.089H572.776ZM494.617 413.089V490.572H417.134V413.089H494.617ZM572.776 412.412H495.293V334.93H572.776V412.412ZM494.617 334.93V412.412H417.134V334.93H494.617ZM495.293 334.253H572.776V256.771H495.293V334.253ZM494.617 334.253V256.771H417.134V334.253H494.617ZM417.134 -134.024H494.617V-56.5419H417.134V-134.024ZM417.134 -55.8652H494.617V21.6172H417.134V-55.8652ZM495.293 -56.5419V-134.024H572.776V-56.5419H495.293ZM495.293 -55.8652H572.776V21.6172H495.293V-55.8652ZM572.776 22.2939H495.293V99.7762H572.776V22.2939ZM494.617 178.612V256.094H417.134V178.612H494.617ZM494.617 100.453V177.935H417.134V100.453H494.617ZM572.776 177.935H495.293V100.453H572.776V177.935ZM494.617 99.7762V22.2939H417.134V99.7762H494.617ZM338.299 490.572V413.089H260.816V490.572H338.299ZM338.975 412.412H416.458V334.93H338.975V412.412ZM338.299 412.412V334.93H260.816V412.412H338.299ZM338.975 490.572H416.458V413.089H338.975V490.572ZM416.458 334.253H338.975V256.771H416.458V334.253ZM338.299 256.771V334.253H260.816V256.771H338.299ZM416.458 -55.8652H338.975V21.6172H416.458V-55.8652ZM338.299 -56.5419V-134.024H260.816V-56.5419H338.299ZM416.458 -134.024H338.975V-56.5419H416.458V-134.024ZM338.975 22.2939H416.458V99.7762H338.975V22.2939ZM338.299 99.7762V22.2939H260.816V99.7762H338.299ZM338.299 -55.8652V21.6172H260.816V-55.8652H338.299ZM181.98 490.572V413.089H104.498V490.572H181.98ZM182.657 412.412H260.14V334.93H182.657V412.412ZM181.98 412.412V334.93H104.498V412.412H181.98ZM182.657 490.572H260.14V413.089H182.657V490.572ZM260.14 334.253H182.657V256.771H260.14V334.253ZM181.98 256.771V334.253H104.498V256.771H181.98ZM338.299 178.612V256.094H260.816V178.612H338.299ZM416.458 177.935H338.975V100.453H416.458V177.935ZM338.299 100.453V177.935H260.816V100.453H338.299ZM260.14 -55.8652H182.657V21.6172H260.14V-55.8652ZM181.98 -56.5419V-134.024H104.498V-56.5419H181.98ZM260.14 -134.024H182.657V-56.5419H260.14V-134.024ZM182.657 22.2939H260.14V99.7762H182.657V22.2939ZM181.98 178.612V256.094H104.498V178.612H181.98ZM181.98 100.453V177.935H104.498V100.453H181.98ZM260.14 177.935H182.657V100.453H260.14V177.935ZM181.98 22.2939V99.7762H104.498V22.2939H181.98ZM181.98 -55.8652V21.6172H104.498V-55.8652H181.98ZM-51.82 412.412H25.6624V334.93H-51.82V412.412ZM26.3391 413.089V490.572H103.821V413.089H26.3391ZM-51.82 413.089V490.572H25.6624V413.089H-51.82ZM103.821 412.412H26.3391V334.93H103.821V412.412ZM-51.82 334.253H25.6624V256.771H-51.82V334.253ZM103.821 334.253H26.3391V256.771H103.821V334.253ZM-51.82 256.094H25.6624V178.612H-51.82V256.094ZM103.821 256.094H26.3391V178.612H103.821V256.094ZM-51.82 177.935H25.6624V100.453H-51.82V177.935ZM103.821 177.935H26.3391V100.453H103.821V177.935ZM103.821 99.7762H26.3391V22.2939H103.821V99.7762ZM25.6624 99.7762H-51.82V22.2939H25.6624V99.7762ZM103.821 -56.5419V-134.024H26.3391V-56.5419H103.821ZM-51.82 -55.8652H25.6624V21.6172H-51.82V-55.8652ZM25.6624 -56.5419H-51.82V-134.024H25.6624V-56.5419ZM103.821 -55.8652H26.3391V21.6172H103.821V-55.8652ZM182.657 178.612V256.094H260.14V178.612H182.657ZM338.975 178.612V256.094H416.458V178.612H338.975ZM495.293 178.612V256.094H572.776V178.612H495.293Z" fill="#101010" fill-opacity="0.2" style="mix-blend-mode:color-burn"/>
</g>
<defs>
<filter id="filter0_d_512_16" x="0" y="0" width="1928" height="1039" filterUnits="userSpaceOnUse" color-interpolation-filters="sRGB">
<feFlood flood-opacity="0" result="BackgroundImageFix"/>
<feColorMatrix in="SourceAlpha" type="matrix" values="0 0 0 0 0 0 0 0 0 0 0 0 0 0 0 0 0 0 127 0" result="hardAlpha"/>
<feOffset dy="4"/>
<feGaussianBlur stdDeviation="2"/>
<feComposite in2="hardAlpha" operator="out"/>
<feColorMatrix type="matrix" values="0 0 0 0 0 0 0 0 0 0 0 0 0 0 0 0 0 0 0.25 0"/>
<feBlend mode="normal" in2="BackgroundImageFix" result="effect1_dropShadow_512_16"/>
<feBlend mode="normal" in="SourceGraphic" in2="effect1_dropShadow_512_16" result="shape"/>
</filter>
<radialGradient id="paint0_angular_512_16" cx="0" cy="0" r="1" gradientUnits="userSpaceOnUse" gradientTransform="translate(964 491) rotate(33.2855) scale(983.946 2591.53)">
<stop stop-color="#FFE600"/>
<stop offset="0.459544" stop-color="#CC00FF"/>
<stop offset="1" stop-color="#FF0000"/>
</radialGradient>
<clipPath id="clip0_512_16">
<rect width="1920" height="1031" fill="white" transform="translate(4)"/>
</clipPath>
</defs>
</svg>
