<svg width="1577" height="104" viewBox="0 0 1577 104" fill="none" xmlns="http://www.w3.org/2000/svg">
<g filter="url(#filter0_dii_539_190)">
<path d="M1504.04 76.1519L1502.88 52.053L1546.05 6.56152H1569.25L1530.33 48.4446L1518.73 60.8163L1504.04 76.1519ZM1485.36 96.7713V6.56152H1506.1V96.7713H1485.36ZM1547.08 96.7713L1515 57.4656L1528.66 42.6454L1571.44 96.7713H1547.08Z" fill="#F0F3F9"/>
<path d="M1421.13 98.3173C1414.17 98.3173 1407.68 97.2004 1401.67 94.9667C1395.74 92.647 1390.58 89.3823 1386.2 85.1725C1381.82 80.9627 1378.38 76.0226 1375.89 70.3523C1373.49 64.682 1372.28 58.4532 1372.28 51.666C1372.28 44.8788 1373.49 38.65 1375.89 32.9797C1378.38 27.3093 1381.82 22.3693 1386.2 18.1595C1390.67 13.9497 1395.87 10.7279 1401.8 8.49416C1407.72 6.17449 1414.21 5.01465 1421.26 5.01465C1429.07 5.01465 1436.12 6.38927 1442.39 9.13852C1448.75 11.8019 1454.07 15.7539 1458.37 20.9947L1444.97 33.3663C1441.87 29.8438 1438.44 27.2234 1434.66 25.5051C1430.88 23.701 1426.75 22.7989 1422.29 22.7989C1418.08 22.7989 1414.21 23.4862 1410.69 24.8608C1407.17 26.2354 1404.12 28.2114 1401.54 30.7889C1398.96 33.3663 1396.94 36.4162 1395.48 39.9387C1394.11 43.4612 1393.42 47.3703 1393.42 51.666C1393.42 55.9617 1394.11 59.8708 1395.48 63.3932C1396.94 66.9157 1398.96 69.9657 1401.54 72.5431C1404.12 75.1205 1407.17 77.0965 1410.69 78.4712C1414.21 79.8458 1418.08 80.5331 1422.29 80.5331C1426.75 80.5331 1430.88 79.674 1434.66 77.9557C1438.44 76.1515 1441.87 73.4452 1444.97 69.8368L1458.37 82.2084C1454.07 87.4492 1448.75 91.4442 1442.39 94.1934C1436.12 96.9427 1429.03 98.3173 1421.13 98.3173Z" fill="#F0F3F9"/>
<path d="M1300.15 98.3173C1293.02 98.3173 1286.4 97.1575 1280.3 94.8378C1274.29 92.5181 1269.05 89.2534 1264.58 85.0436C1260.2 80.8338 1256.76 75.8937 1254.27 70.2234C1251.87 64.5531 1250.66 58.3673 1250.66 51.666C1250.66 44.9647 1251.87 38.7789 1254.27 33.1085C1256.76 27.4382 1260.24 22.4982 1264.71 18.2884C1269.18 14.0786 1274.42 10.8138 1280.43 8.49416C1286.45 6.17449 1292.98 5.01465 1300.02 5.01465C1307.15 5.01465 1313.68 6.17449 1319.61 8.49416C1325.62 10.8138 1330.82 14.0786 1335.2 18.2884C1339.67 22.4982 1343.15 27.4382 1345.64 33.1085C1348.13 38.693 1349.38 44.8788 1349.38 51.666C1349.38 58.3673 1348.13 64.596 1345.64 70.3523C1343.15 76.0226 1339.67 80.9627 1335.2 85.1725C1330.82 89.2963 1325.62 92.5181 1319.61 94.8378C1313.68 97.1575 1307.19 98.3173 1300.15 98.3173ZM1300.02 80.5331C1304.06 80.5331 1307.75 79.8458 1311.1 78.4712C1314.54 77.0965 1317.55 75.1205 1320.12 72.5431C1322.7 69.9657 1324.68 66.9157 1326.05 63.3932C1327.51 59.8708 1328.24 55.9617 1328.24 51.666C1328.24 47.3703 1327.51 43.4612 1326.05 39.9387C1324.68 36.4162 1322.7 33.3663 1320.12 30.7889C1317.63 28.2114 1314.67 26.2354 1311.23 24.8608C1307.8 23.4862 1304.06 22.7989 1300.02 22.7989C1295.98 22.7989 1292.24 23.4862 1288.81 24.8608C1285.46 26.2354 1282.49 28.2114 1279.92 30.7889C1277.34 33.3663 1275.32 36.4162 1273.86 39.9387C1272.48 43.4612 1271.8 47.3703 1271.8 51.666C1271.8 55.8758 1272.48 59.7849 1273.86 63.3932C1275.32 66.9157 1277.3 69.9657 1279.79 72.5431C1282.36 75.1205 1285.37 77.0965 1288.81 78.4712C1292.24 79.8458 1295.98 80.5331 1300.02 80.5331Z" fill="#F0F3F9"/>
<path d="M1136.98 96.7713V6.56152H1177.96C1187.75 6.56152 1196.39 8.45163 1203.86 12.2319C1211.33 15.9262 1217.18 21.124 1221.39 27.8253C1225.6 34.5265 1227.7 42.4736 1227.7 51.6664C1227.7 60.7733 1225.6 68.7204 1221.39 75.5076C1217.18 82.2089 1211.33 87.4496 1203.86 91.2298C1196.39 94.9241 1187.75 96.7713 1177.96 96.7713H1136.98ZM1157.85 79.6314H1176.93C1182.94 79.6314 1188.14 78.5145 1192.52 76.2808C1196.99 73.9611 1200.42 70.6964 1202.83 66.4866C1205.32 62.2768 1206.57 57.3367 1206.57 51.6664C1206.57 45.9102 1205.32 40.9701 1202.83 36.8462C1200.42 32.6364 1196.99 29.4147 1192.52 27.1809C1188.14 24.8612 1182.94 23.7014 1176.93 23.7014H1157.85V79.6314Z" fill="#F0F3F9"/>
<path d="M1013.73 96.7713V23.5725H984.861V6.56152H1063.47V23.5725H1034.61V96.7713H1013.73Z" fill="#F0F3F9"/>
<path d="M888.647 96.7713V6.56152H927.695C935.771 6.56152 942.73 7.89319 948.573 10.5565C954.415 13.1339 958.925 16.8712 962.104 21.7683C965.283 26.6654 966.872 32.5076 966.872 39.2948C966.872 45.9961 965.283 51.7953 962.104 56.6924C958.925 61.5036 954.415 65.1979 948.573 67.7753C942.73 70.3527 935.771 71.6414 927.695 71.6414H900.246L909.525 62.4916V96.7713H888.647ZM945.995 96.7713L923.443 64.038H945.737L968.547 96.7713H945.995ZM909.525 64.8113L900.246 55.0171H926.535C932.979 55.0171 937.79 53.6424 940.969 50.8932C944.148 48.058 945.737 44.1919 945.737 39.2948C945.737 34.3118 944.148 30.4456 940.969 27.6964C937.79 24.9471 932.979 23.5725 926.535 23.5725H900.246L909.525 13.6494V64.8113Z" fill="#F0F3F9"/>
<path d="M765.237 96.7713L805.445 6.56152H826.064L866.401 96.7713H844.493L811.502 17.129H819.75L786.63 96.7713H765.237ZM785.341 77.4406L790.883 61.5895H837.276L842.947 77.4406H785.341Z" fill="#F0F3F9"/>
<path d="M653.845 96.7713V23.5725H624.978V6.56152H703.59V23.5725H674.723V96.7713H653.845Z" fill="#F0F3F9"/>
<path d="M558.612 98.3173C551.481 98.3173 544.865 97.1575 538.766 94.8378C532.752 92.5181 527.511 89.2534 523.043 85.0436C518.662 80.8338 515.225 75.8937 512.734 70.2234C510.328 64.5531 509.125 58.3673 509.125 51.666C509.125 44.9647 510.328 38.7789 512.734 33.1085C515.225 27.4382 518.705 22.4982 523.172 18.2884C527.64 14.0786 532.88 10.8138 538.894 8.49416C544.908 6.17449 551.438 5.01465 558.483 5.01465C565.614 5.01465 572.143 6.17449 578.071 8.49416C584.085 10.8138 589.283 14.0786 593.665 18.2884C598.132 22.4982 601.612 27.4382 604.103 33.1085C606.595 38.693 607.84 44.8788 607.84 51.666C607.84 58.3673 606.595 64.596 604.103 70.3523C601.612 76.0226 598.132 80.9627 593.665 85.1725C589.283 89.2963 584.085 92.5181 578.071 94.8378C572.143 97.1575 565.657 98.3173 558.612 98.3173ZM558.483 80.5331C562.521 80.5331 566.215 79.8458 569.566 78.4712C573.002 77.0965 576.009 75.1205 578.587 72.5431C581.164 69.9657 583.14 66.9157 584.515 63.3932C585.975 59.8708 586.706 55.9617 586.706 51.666C586.706 47.3703 585.975 43.4612 584.515 39.9387C583.14 36.4162 581.164 33.3663 578.587 30.7889C576.095 28.2114 573.131 26.2354 569.695 24.8608C566.258 23.4862 562.521 22.7989 558.483 22.7989C554.445 22.7989 550.708 23.4862 547.271 24.8608C543.92 26.2354 540.956 28.2114 538.379 30.7889C535.802 33.3663 533.783 36.4162 532.322 39.9387C530.947 43.4612 530.26 47.3703 530.26 51.666C530.26 55.8758 530.947 59.7849 532.322 63.3932C533.783 66.9157 535.759 69.9657 538.25 72.5431C540.828 75.1205 543.835 77.0965 547.271 78.4712C550.708 79.8458 554.445 80.5331 558.483 80.5331Z" fill="#F0F3F9"/>
<path d="M446.045 98.3173C438.914 98.3173 432.342 97.2004 426.328 94.9667C420.4 92.647 415.202 89.3823 410.734 85.1725C406.353 80.9627 402.916 76.0226 400.425 70.3523C398.019 64.682 396.816 58.4532 396.816 51.666C396.816 44.8788 398.019 38.65 400.425 32.9797C402.916 27.3093 406.396 22.3693 410.863 18.1595C415.331 13.9497 420.571 10.7279 426.585 8.49416C432.599 6.17449 439.215 5.01465 446.432 5.01465C454.422 5.01465 461.595 6.34632 467.953 9.00965C474.397 11.673 479.809 15.5391 484.191 20.608L470.788 32.9797C467.523 29.5431 463.958 27.0086 460.092 25.3763C456.226 23.658 452.016 22.7989 447.462 22.7989C443.081 22.7989 439.086 23.4862 435.477 24.8608C431.869 26.2354 428.733 28.2114 426.07 30.7889C423.492 33.3663 421.473 36.4162 420.013 39.9387C418.638 43.4612 417.951 47.3703 417.951 51.666C417.951 55.8758 418.638 59.7419 420.013 63.2644C421.473 66.7868 423.492 69.8798 426.07 72.5431C428.733 75.1205 431.826 77.0965 435.349 78.4712C438.957 79.8458 442.909 80.5331 447.205 80.5331C451.329 80.5331 455.324 79.8887 459.19 78.6C463.142 77.2254 466.965 74.9487 470.659 71.7699L482.515 86.8478C477.618 90.5421 471.905 93.3773 465.376 95.3533C458.932 97.3293 452.488 98.3173 446.045 98.3173ZM463.443 84.1415V50.2484H482.515V86.8478L463.443 84.1415Z" fill="#F0F3F9"/>
<path d="M294.834 96.7713V6.56152H333.882C341.958 6.56152 348.917 7.89319 354.759 10.5565C360.601 13.1339 365.111 16.8712 368.29 21.7683C371.469 26.6654 373.059 32.5076 373.059 39.2948C373.059 45.9961 371.469 51.7953 368.29 56.6924C365.111 61.5036 360.601 65.1979 354.759 67.7753C348.917 70.3527 341.958 71.6414 333.882 71.6414H306.432L315.711 62.4916V96.7713H294.834ZM352.181 96.7713L329.629 64.038H351.924L374.734 96.7713H352.181ZM315.711 64.8113L306.432 55.0171H332.722C339.165 55.0171 343.977 53.6424 347.155 50.8932C350.334 48.058 351.924 44.1919 351.924 39.2948C351.924 34.3118 350.334 30.4456 347.155 27.6964C343.977 24.9471 339.165 23.5725 332.722 23.5725H306.432L315.711 13.6494V64.8113Z" fill="#F0F3F9"/>
<path d="M217.028 98.3173C209.897 98.3173 203.282 97.1575 197.182 94.8378C191.168 92.5181 185.927 89.2534 181.46 85.0436C177.078 80.8338 173.641 75.8937 171.15 70.2234C168.744 64.5531 167.542 58.3673 167.542 51.666C167.542 44.9647 168.744 38.7789 171.15 33.1085C173.641 27.4382 177.121 22.4982 181.588 18.2884C186.056 14.0786 191.297 10.8138 197.311 8.49416C203.325 6.17449 209.854 5.01465 216.899 5.01465C224.03 5.01465 230.559 6.17449 236.488 8.49416C242.502 10.8138 247.699 14.0786 252.081 18.2884C256.548 22.4982 260.028 27.4382 262.519 33.1085C265.011 38.693 266.257 44.8788 266.257 51.666C266.257 58.3673 265.011 64.596 262.519 70.3523C260.028 76.0226 256.548 80.9627 252.081 85.1725C247.699 89.2963 242.502 92.5181 236.488 94.8378C230.559 97.1575 224.073 98.3173 217.028 98.3173ZM216.899 80.5331C220.937 80.5331 224.631 79.8458 227.982 78.4712C231.419 77.0965 234.426 75.1205 237.003 72.5431C239.58 69.9657 241.556 66.9157 242.931 63.3932C244.392 59.8708 245.122 55.9617 245.122 51.666C245.122 47.3703 244.392 43.4612 242.931 39.9387C241.556 36.4162 239.58 33.3663 237.003 30.7889C234.512 28.2114 231.547 26.2354 228.111 24.8608C224.674 23.4862 220.937 22.7989 216.899 22.7989C212.861 22.7989 209.124 23.4862 205.687 24.8608C202.337 26.2354 199.373 28.2114 196.795 30.7889C194.218 33.3663 192.199 36.4162 190.738 39.9387C189.364 43.4612 188.676 47.3703 188.676 51.666C188.676 55.8758 189.364 59.7849 190.738 63.3932C192.199 66.9157 194.175 69.9657 196.666 72.5431C199.244 75.1205 202.251 77.0965 205.687 78.4712C209.124 79.8458 212.861 80.5331 216.899 80.5331Z" fill="#F0F3F9"/>
<path d="M34.9812 96.7713L5.46973 6.56152H27.1201L52.7654 86.4616H41.9402L68.7454 6.56152H88.0761L113.85 86.4616H103.412L129.701 6.56152H149.676L120.165 96.7713H97.7414L74.9312 26.6654H80.8593L57.4048 96.7713H34.9812Z" fill="#F0F3F9"/>
</g>
<defs>
<filter id="filter0_dii_539_190" x="0.469727" y="0.0146484" width="1575.97" height="103.303" filterUnits="userSpaceOnUse" color-interpolation-filters="sRGB">
<feFlood flood-opacity="0" result="BackgroundImageFix"/>
<feColorMatrix in="SourceAlpha" type="matrix" values="0 0 0 0 0 0 0 0 0 0 0 0 0 0 0 0 0 0 127 0" result="hardAlpha"/>
<feOffset/>
<feGaussianBlur stdDeviation="2.5"/>
<feComposite in2="hardAlpha" operator="out"/>
<feColorMatrix type="matrix" values="0 0 0 0 0 0 0 0 0 0 0 0 0 0 0 0 0 0 0.15 0"/>
<feBlend mode="normal" in2="BackgroundImageFix" result="effect1_dropShadow_539_190"/>
<feBlend mode="normal" in="SourceGraphic" in2="effect1_dropShadow_539_190" result="shape"/>
<feColorMatrix in="SourceAlpha" type="matrix" values="0 0 0 0 0 0 0 0 0 0 0 0 0 0 0 0 0 0 127 0" result="hardAlpha"/>
<feOffset dx="1" dy="2"/>
<feGaussianBlur stdDeviation="1"/>
<feComposite in2="hardAlpha" operator="arithmetic" k2="-1" k3="1"/>
<feColorMatrix type="matrix" values="0 0 0 0 0.908333 0 0 0 0 0.9175 0 0 0 0 1 0 0 0 1 0"/>
<feBlend mode="normal" in2="shape" result="effect2_innerShadow_539_190"/>
<feColorMatrix in="SourceAlpha" type="matrix" values="0 0 0 0 0 0 0 0 0 0 0 0 0 0 0 0 0 0 127 0" result="hardAlpha"/>
<feOffset dx="-1" dy="-1"/>
<feGaussianBlur stdDeviation="1"/>
<feComposite in2="hardAlpha" operator="arithmetic" k2="-1" k3="1"/>
<feColorMatrix type="matrix" values="0 0 0 0 0.658333 0 0 0 0 0.754 0 0 0 0 1 0 0 0 1 0"/>
<feBlend mode="normal" in2="effect2_innerShadow_539_190" result="effect3_innerShadow_539_190"/>
</filter>
</defs>
</svg>
