<svg width="983" height="69" viewBox="0 0 983 69" fill="none" xmlns="http://www.w3.org/2000/svg">
<g filter="url(#filter0_d_539_38)">
<path d="M935.674 49.8123L934.954 34.8523L961.754 6.6123H976.154L951.994 32.6123L944.794 40.2923L935.674 49.8123ZM924.074 62.6123V6.6123H936.954V62.6123H924.074ZM962.394 62.6123L942.474 38.2123L950.954 29.0123L977.514 62.6123H962.394Z" fill="white"/>
<path d="M884.202 63.5723C879.882 63.5723 875.856 62.879 872.122 61.4923C868.442 60.0523 865.242 58.0257 862.522 55.4123C859.802 52.799 857.669 49.7323 856.122 46.2123C854.629 42.6923 853.882 38.8257 853.882 34.6123C853.882 30.399 854.629 26.5323 856.122 23.0123C857.669 19.4923 859.802 16.4257 862.522 13.8123C865.296 11.199 868.522 9.19901 872.202 7.81234C875.882 6.37234 879.909 5.65234 884.282 5.65234C889.136 5.65234 893.509 6.50568 897.402 8.21234C901.349 9.86567 904.656 12.319 907.322 15.5723L899.002 23.2523C897.082 21.0657 894.949 19.439 892.602 18.3723C890.256 17.2523 887.696 16.6923 884.922 16.6923C882.309 16.6923 879.909 17.119 877.722 17.9723C875.536 18.8257 873.642 20.0523 872.042 21.6523C870.442 23.2523 869.189 25.1457 868.282 27.3323C867.429 29.519 867.002 31.9457 867.002 34.6123C867.002 37.279 867.429 39.7057 868.282 41.8923C869.189 44.079 870.442 45.9723 872.042 47.5723C873.642 49.1723 875.536 50.399 877.722 51.2523C879.909 52.1057 882.309 52.5323 884.922 52.5323C887.696 52.5323 890.256 51.999 892.602 50.9323C894.949 49.8123 897.082 48.1323 899.002 45.8923L907.322 53.5723C904.656 56.8257 901.349 59.3057 897.402 61.0123C893.509 62.719 889.109 63.5723 884.202 63.5723Z" fill="white"/>
<path d="M809.102 63.5723C804.676 63.5723 800.569 62.8523 796.782 61.4123C793.049 59.9723 789.796 57.9457 787.022 55.3323C784.302 52.719 782.169 49.6523 780.622 46.1323C779.129 42.6123 778.382 38.7723 778.382 34.6123C778.382 30.4523 779.129 26.6123 780.622 23.0923C782.169 19.5723 784.329 16.5057 787.102 13.8923C789.876 11.279 793.129 9.25234 796.862 7.81234C800.596 6.37234 804.649 5.65234 809.022 5.65234C813.449 5.65234 817.502 6.37234 821.182 7.81234C824.916 9.25234 828.142 11.279 830.862 13.8923C833.636 16.5057 835.796 19.5723 837.342 23.0923C838.889 26.559 839.662 30.399 839.662 34.6123C839.662 38.7723 838.889 42.639 837.342 46.2123C835.796 49.7323 833.636 52.799 830.862 55.4123C828.142 57.9723 824.916 59.9723 821.182 61.4123C817.502 62.8523 813.476 63.5723 809.102 63.5723ZM809.022 52.5323C811.529 52.5323 813.822 52.1057 815.902 51.2523C818.036 50.399 819.902 49.1723 821.502 47.5723C823.102 45.9723 824.329 44.079 825.182 41.8923C826.089 39.7057 826.542 37.279 826.542 34.6123C826.542 31.9457 826.089 29.519 825.182 27.3323C824.329 25.1457 823.102 23.2523 821.502 21.6523C819.956 20.0523 818.116 18.8257 815.982 17.9723C813.849 17.119 811.529 16.6923 809.022 16.6923C806.516 16.6923 804.196 17.119 802.062 17.9723C799.982 18.8257 798.142 20.0523 796.542 21.6523C794.942 23.2523 793.689 25.1457 792.782 27.3323C791.929 29.519 791.502 31.9457 791.502 34.6123C791.502 37.2257 791.929 39.6523 792.782 41.8923C793.689 44.079 794.916 45.9723 796.462 47.5723C798.062 49.1723 799.929 50.399 802.062 51.2523C804.196 52.1057 806.516 52.5323 809.022 52.5323Z" fill="white"/>
<path d="M707.809 62.6123V6.6123H733.249C739.329 6.6123 744.689 7.78564 749.329 10.1323C753.969 12.4256 757.595 15.6523 760.209 19.8123C762.822 23.9723 764.129 28.9056 764.129 34.6123C764.129 40.2656 762.822 45.199 760.209 49.4123C757.595 53.5723 753.969 56.8256 749.329 59.1723C744.689 61.4656 739.329 62.6123 733.249 62.6123H707.809ZM720.769 51.9723H732.609C736.342 51.9723 739.569 51.279 742.289 49.8923C745.062 48.4523 747.195 46.4256 748.689 43.8123C750.235 41.199 751.009 38.1323 751.009 34.6123C751.009 31.039 750.235 27.9723 748.689 25.4123C747.195 22.799 745.062 20.799 742.289 19.4123C739.569 17.9723 736.342 17.2523 732.609 17.2523H720.769V51.9723Z" fill="white"/>
<path d="M631.299 62.6123V17.1723H613.379V6.6123H662.179V17.1723H644.259V62.6123H631.299Z" fill="white"/>
<path d="M553.652 62.6123V6.6123H577.892C582.906 6.6123 587.226 7.43897 590.852 9.09231C594.479 10.6923 597.279 13.0123 599.252 16.0523C601.226 19.0923 602.212 22.719 602.212 26.9323C602.212 31.0923 601.226 34.6923 599.252 37.7323C597.279 40.719 594.479 43.0123 590.852 44.6123C587.226 46.2123 582.906 47.0123 577.892 47.0123H560.852L566.612 41.3323V62.6123H553.652ZM589.252 62.6123L575.252 42.2923H589.092L603.252 62.6123H589.252ZM566.612 42.7723L560.852 36.6923H577.172C581.172 36.6923 584.159 35.839 586.132 34.1323C588.106 32.3723 589.092 29.9723 589.092 26.9323C589.092 23.839 588.106 21.439 586.132 19.7323C584.159 18.0256 581.172 17.1723 577.172 17.1723H560.852L566.612 11.0123V42.7723Z" fill="white"/>
<path d="M477.042 62.6123L502.002 6.6123H514.802L539.842 62.6123H526.242L505.762 13.1723H510.882L490.322 62.6123H477.042ZM489.522 50.6123L492.962 40.7723H521.762L525.282 50.6123H489.522Z" fill="white"/>
<path d="M407.893 62.6123V17.1723H389.973V6.6123H438.773V17.1723H420.853V62.6123H407.893Z" fill="white"/>
<path d="M348.774 63.5723C344.348 63.5723 340.241 62.8523 336.454 61.4123C332.721 59.9723 329.468 57.9457 326.694 55.3323C323.974 52.719 321.841 49.6523 320.294 46.1323C318.801 42.6123 318.054 38.7723 318.054 34.6123C318.054 30.4523 318.801 26.6123 320.294 23.0923C321.841 19.5723 324.001 16.5057 326.774 13.8923C329.548 11.279 332.801 9.25234 336.534 7.81234C340.268 6.37234 344.321 5.65234 348.694 5.65234C353.121 5.65234 357.174 6.37234 360.854 7.81234C364.588 9.25234 367.814 11.279 370.534 13.8923C373.308 16.5057 375.468 19.5723 377.014 23.0923C378.561 26.559 379.334 30.399 379.334 34.6123C379.334 38.7723 378.561 42.639 377.014 46.2123C375.468 49.7323 373.308 52.799 370.534 55.4123C367.814 57.9723 364.588 59.9723 360.854 61.4123C357.174 62.8523 353.148 63.5723 348.774 63.5723ZM348.694 52.5323C351.201 52.5323 353.494 52.1057 355.574 51.2523C357.708 50.399 359.574 49.1723 361.174 47.5723C362.774 45.9723 364.001 44.079 364.854 41.8923C365.761 39.7057 366.214 37.279 366.214 34.6123C366.214 31.9457 365.761 29.519 364.854 27.3323C364.001 25.1457 362.774 23.2523 361.174 21.6523C359.628 20.0523 357.788 18.8257 355.654 17.9723C353.521 17.119 351.201 16.6923 348.694 16.6923C346.188 16.6923 343.868 17.119 341.734 17.9723C339.654 18.8257 337.814 20.0523 336.214 21.6523C334.614 23.2523 333.361 25.1457 332.454 27.3323C331.601 29.519 331.174 31.9457 331.174 34.6123C331.174 37.2257 331.601 39.6523 332.454 41.8923C333.361 44.079 334.588 45.9723 336.134 47.5723C337.734 49.1723 339.601 50.399 341.734 51.2523C343.868 52.1057 346.188 52.5323 348.694 52.5323Z" fill="white"/>
<path d="M278.895 63.5723C274.469 63.5723 270.389 62.879 266.655 61.4923C262.975 60.0523 259.749 58.0257 256.975 55.4123C254.255 52.799 252.122 49.7323 250.575 46.2123C249.082 42.6923 248.335 38.8257 248.335 34.6123C248.335 30.399 249.082 26.5323 250.575 23.0123C252.122 19.4923 254.282 16.4257 257.055 13.8123C259.829 11.199 263.082 9.19901 266.815 7.81234C270.549 6.37234 274.655 5.65234 279.135 5.65234C284.095 5.65234 288.549 6.47901 292.495 8.13234C296.495 9.78568 299.855 12.1857 302.575 15.3323L294.255 23.0123C292.229 20.879 290.015 19.3057 287.615 18.2923C285.215 17.2257 282.602 16.6923 279.775 16.6923C277.055 16.6923 274.575 17.119 272.335 17.9723C270.095 18.8257 268.149 20.0523 266.495 21.6523C264.895 23.2523 263.642 25.1457 262.735 27.3323C261.882 29.519 261.455 31.9457 261.455 34.6123C261.455 37.2257 261.882 39.6257 262.735 41.8123C263.642 43.999 264.895 45.919 266.495 47.5723C268.149 49.1723 270.069 50.399 272.255 51.2523C274.495 52.1057 276.949 52.5323 279.615 52.5323C282.175 52.5323 284.655 52.1323 287.055 51.3323C289.509 50.479 291.882 49.0657 294.175 47.0923L301.535 56.4523C298.495 58.7457 294.949 60.5057 290.895 61.7323C286.895 62.959 282.895 63.5723 278.895 63.5723ZM289.695 54.7723V33.7323H301.535V56.4523L289.695 54.7723Z" fill="white"/>
<path d="M185.027 62.6123V6.6123H209.267C214.281 6.6123 218.601 7.43897 222.227 9.09231C225.854 10.6923 228.654 13.0123 230.627 16.0523C232.601 19.0923 233.587 22.719 233.587 26.9323C233.587 31.0923 232.601 34.6923 230.627 37.7323C228.654 40.719 225.854 43.0123 222.227 44.6123C218.601 46.2123 214.281 47.0123 209.267 47.0123H192.227L197.987 41.3323V62.6123H185.027ZM220.627 62.6123L206.627 42.2923H220.467L234.627 62.6123H220.627ZM197.987 42.7723L192.227 36.6923H208.547C212.547 36.6923 215.534 35.839 217.507 34.1323C219.481 32.3723 220.467 29.9723 220.467 26.9323C220.467 23.839 219.481 21.439 217.507 19.7323C215.534 18.0256 212.547 17.1723 208.547 17.1723H192.227L197.987 11.0123V42.7723Z" fill="white"/>
<path d="M136.727 63.5723C132.301 63.5723 128.194 62.8523 124.407 61.4123C120.674 59.9723 117.421 57.9457 114.647 55.3323C111.927 52.719 109.794 49.6523 108.247 46.1323C106.754 42.6123 106.007 38.7723 106.007 34.6123C106.007 30.4523 106.754 26.6123 108.247 23.0923C109.794 19.5723 111.954 16.5057 114.727 13.8923C117.501 11.279 120.754 9.25234 124.487 7.81234C128.221 6.37234 132.274 5.65234 136.647 5.65234C141.074 5.65234 145.127 6.37234 148.807 7.81234C152.541 9.25234 155.767 11.279 158.487 13.8923C161.261 16.5057 163.421 19.5723 164.967 23.0923C166.514 26.559 167.287 30.399 167.287 34.6123C167.287 38.7723 166.514 42.639 164.967 46.2123C163.421 49.7323 161.261 52.799 158.487 55.4123C155.767 57.9723 152.541 59.9723 148.807 61.4123C145.127 62.8523 141.101 63.5723 136.727 63.5723ZM136.647 52.5323C139.154 52.5323 141.447 52.1057 143.527 51.2523C145.661 50.399 147.527 49.1723 149.127 47.5723C150.727 45.9723 151.954 44.079 152.807 41.8923C153.714 39.7057 154.167 37.279 154.167 34.6123C154.167 31.9457 153.714 29.519 152.807 27.3323C151.954 25.1457 150.727 23.2523 149.127 21.6523C147.581 20.0523 145.741 18.8257 143.607 17.9723C141.474 17.119 139.154 16.6923 136.647 16.6923C134.141 16.6923 131.821 17.119 129.687 17.9723C127.607 18.8257 125.767 20.0523 124.167 21.6523C122.567 23.2523 121.314 25.1457 120.407 27.3323C119.554 29.519 119.127 31.9457 119.127 34.6123C119.127 37.2257 119.554 39.6523 120.407 41.8923C121.314 44.079 122.541 45.9723 124.087 47.5723C125.687 49.1723 127.554 50.399 129.687 51.2523C131.821 52.1057 134.141 52.5323 136.647 52.5323Z" fill="white"/>
<path d="M23.7172 62.6123L5.39722 6.6123H18.8372L34.7572 56.2123H28.0372L44.6772 6.6123H56.6772L72.6772 56.2123H66.1972L82.5172 6.6123H94.9172L76.5972 62.6123H62.6772L48.5172 19.0923H52.1972L37.6372 62.6123H23.7172Z" fill="white"/>
</g>
<defs>
<filter id="filter0_d_539_38" x="0.397217" y="0.652344" width="982.117" height="67.9199" filterUnits="userSpaceOnUse" color-interpolation-filters="sRGB">
<feFlood flood-opacity="0" result="BackgroundImageFix"/>
<feColorMatrix in="SourceAlpha" type="matrix" values="0 0 0 0 0 0 0 0 0 0 0 0 0 0 0 0 0 0 127 0" result="hardAlpha"/>
<feOffset/>
<feGaussianBlur stdDeviation="2.5"/>
<feComposite in2="hardAlpha" operator="out"/>
<feColorMatrix type="matrix" values="0 0 0 0 0 0 0 0 0 0 0 0 0 0 0 0 0 0 0.15 0"/>
<feBlend mode="normal" in2="BackgroundImageFix" result="effect1_dropShadow_539_38"/>
<feBlend mode="normal" in="SourceGraphic" in2="effect1_dropShadow_539_38" result="shape"/>
</filter>
</defs>
</svg>
