<svg width="173" height="174" viewBox="0 0 173 174" fill="none" xmlns="http://www.w3.org/2000/svg">
<path d="M86.5068 171C132.899 171 170.507 133.392 170.507 87C170.507 40.6081 132.899 3 86.5068 3C40.1149 3 2.50684 40.6081 2.50684 87C2.50684 133.392 40.1149 171 86.5068 171Z" fill="#FDC5F5" stroke="white" stroke-width="5"/>
<path d="M86.5068 157.35C72.59 157.352 58.9852 153.227 47.4131 145.496C35.8409 137.766 26.8211 126.777 21.4945 113.92C16.1679 101.063 14.7737 86.9152 17.4882 73.2658C20.2027 59.6164 26.9041 47.0785 36.7447 37.2379C46.5853 27.3973 59.1232 20.6959 72.7726 17.9814C86.4221 15.2668 100.57 16.661 113.427 21.9877C126.284 27.3143 137.273 36.3341 145.003 47.9062C152.734 59.4784 156.859 73.0832 156.857 86.9999C156.836 105.651 149.417 123.533 136.228 136.721C123.04 149.91 105.158 157.329 86.5068 157.35ZM86.5068 26.4999C74.5466 26.5039 62.8562 30.0538 52.9134 36.701C42.9706 43.3481 35.2218 52.794 30.6467 63.8445C26.0716 74.8949 24.8756 87.0538 27.2098 98.7839C29.5441 110.514 35.3039 121.289 43.7609 129.746C52.218 138.203 62.9927 143.963 74.7228 146.297C86.4529 148.631 98.6118 147.435 109.662 142.86C120.713 138.285 130.159 130.536 136.806 120.593C143.453 110.65 147.003 98.96 147.007 86.9999C146.994 70.9584 140.615 55.5777 129.272 44.2346C117.929 32.8915 102.548 26.5132 86.5068 26.4999Z" fill="#6D47A8"/>
<path d="M59.8169 77.8702C67.1236 77.8702 73.0469 71.9469 73.0469 64.6402C73.0469 57.3334 67.1236 51.4102 59.8169 51.4102C52.5102 51.4102 46.5869 57.3334 46.5869 64.6402C46.5869 71.9469 52.5102 77.8702 59.8169 77.8702Z" fill="#6D47A8"/>
<path d="M113.187 77.8702C120.494 77.8702 126.417 71.9469 126.417 64.6402C126.417 57.3334 120.494 51.4102 113.187 51.4102C105.88 51.4102 99.957 57.3334 99.957 64.6402C99.957 71.9469 105.88 77.8702 113.187 77.8702Z" fill="#6D47A8"/>
<path d="M86.507 135.11C75.7267 135.104 65.2493 131.543 56.698 124.978C48.1467 118.414 41.9989 109.213 39.207 98.8L37.937 94.03L47.477 91.5L48.757 96.27C50.9825 104.581 55.8886 111.925 62.7141 117.164C69.5397 122.402 77.9031 125.241 86.507 125.241C95.1109 125.241 103.474 122.402 110.3 117.164C117.125 111.925 122.031 104.581 124.257 96.27L125.527 91.5L135.067 94.04L133.797 98.81C131.004 109.219 124.857 118.417 116.308 124.979C107.758 131.541 97.2843 135.102 86.507 135.11Z" fill="#6D47A8"/>
</svg>
